<svg width="200" height="200" viewBox="0 0 200 200" fill="none" xmlns="http://www.w3.org/2000/svg">
  <rect width="200" height="200" rx="40" fill="#3B82F6"/>
  
  <path d="M25 35C25 26.7157 31.7157 20 40 20H160C168.284 20 175 26.7157 175 35V165C175 173.284 168.284 180 160 180H40C31.7157 180 25 173.284 25 165V35Z" fill="#F8FAFC"/>
  
  <path d="M150 20L175 45H160C154.477 45 150 40.5228 150 35V20Z" fill="#CBD5E1"/>
  
  <circle cx="55" cy="65" r="15" fill="#86EFAC"/>
  <path d="M49 65L53 69L61 61" stroke="white" stroke-width="3" stroke-linecap="round" stroke-linejoin="round"/>
  <rect x="80" y="60" width="70" height="10" rx="5" fill="#E2E8F0"/>
  
  <circle cx="55" cy="105" r="15" fill="#FDBA74"/>
  <path d="M49 105L53 109L61 101" stroke="white" stroke-width="3" stroke-linecap="round" stroke-linejoin="round"/>
  <rect x="80" y="100" width="80" height="10" rx="5" fill="#E2E8F0"/>
  
  <circle cx="55" cy="145" r="15" fill="#FCA5A5"/>
  <circle cx="55" cy="145" r="7" fill="#F8FAFC"/>
  <rect x="80" y="140" width="60" height="10" rx="5" fill="#E2E8F0"/>
</svg>
